<svg id="visual" viewBox="0 0 900 450" width="900" height="450" xmlns="http://www.w3.org/2000/svg" xmlns:xlink="http://www.w3.org/1999/xlink" version="1.1"><rect x="0" y="0" width="900" height="450" fill="#0189ff"></rect><path d="M0 209L16.7 211.5C33.3 214 66.7 219 100 229.3C133.3 239.7 166.7 255.3 200 263.2C233.3 271 266.7 271 300 267.5C333.3 264 366.7 257 400 258.5C433.3 260 466.7 270 500 270.3C533.3 270.7 566.7 261.3 600 262.5C633.3 263.7 666.7 275.3 700 269.5C733.3 263.7 766.7 240.3 800 224C833.3 207.7 866.7 198.3 883.3 193.7L900 189L900 451L883.3 451C866.7 451 833.3 451 800 451C766.7 451 733.3 451 700 451C666.7 451 633.3 451 600 451C566.7 451 533.3 451 500 451C466.7 451 433.3 451 400 451C366.7 451 333.3 451 300 451C266.7 451 233.3 451 200 451C166.7 451 133.3 451 100 451C66.7 451 33.3 451 16.7 451L0 451Z" fill="#05579f"></path><path d="M0 268L16.7 271C33.3 274 66.7 280 100 286.8C133.3 293.7 166.7 301.3 200 291.8C233.3 282.3 266.7 255.7 300 241.8C333.3 228 366.7 227 400 227.5C433.3 228 466.7 230 500 240.2C533.3 250.3 566.7 268.7 600 281.5C633.3 294.3 666.7 301.7 700 291.5C733.3 281.3 766.7 253.7 800 248.5C833.3 243.3 866.7 260.7 883.3 269.3L900 278L900 451L883.3 451C866.7 451 833.3 451 800 451C766.7 451 733.3 451 700 451C666.7 451 633.3 451 600 451C566.7 451 533.3 451 500 451C466.7 451 433.3 451 400 451C366.7 451 333.3 451 300 451C266.7 451 233.3 451 200 451C166.7 451 133.3 451 100 451C66.7 451 33.3 451 16.7 451L0 451Z" fill="#805ea4"></path><path d="M0 271L16.7 273.8C33.3 276.7 66.7 282.3 100 282C133.3 281.7 166.7 275.3 200 270.2C233.3 265 266.7 261 300 259.5C333.3 258 366.7 259 400 272.2C433.3 285.3 466.7 310.7 500 321.3C533.3 332 566.7 328 600 314.7C633.3 301.3 666.7 278.7 700 267.7C733.3 256.7 766.7 257.3 800 267.5C833.3 277.7 866.7 297.3 883.3 307.2L900 317L900 451L883.3 451C866.7 451 833.3 451 800 451C766.7 451 733.3 451 700 451C666.7 451 633.3 451 600 451C566.7 451 533.3 451 500 451C466.7 451 433.3 451 400 451C366.7 451 333.3 451 300 451C266.7 451 233.3 451 200 451C166.7 451 133.3 451 100 451C66.7 451 33.3 451 16.7 451L0 451Z" fill="#bd699a"></path><path d="M0 346L16.7 348.7C33.3 351.3 66.7 356.7 100 358.2C133.3 359.7 166.7 357.3 200 354.8C233.3 352.3 266.7 349.7 300 341.2C333.3 332.7 366.7 318.3 400 316.2C433.3 314 466.7 324 500 330C533.3 336 566.7 338 600 338.7C633.3 339.3 666.7 338.7 700 342.7C733.3 346.7 766.7 355.3 800 354.7C833.3 354 866.7 344 883.3 339L900 334L900 451L883.3 451C866.7 451 833.3 451 800 451C766.7 451 733.3 451 700 451C666.7 451 633.3 451 600 451C566.7 451 533.3 451 500 451C466.7 451 433.3 451 400 451C366.7 451 333.3 451 300 451C266.7 451 233.3 451 200 451C166.7 451 133.3 451 100 451C66.7 451 33.3 451 16.7 451L0 451Z" fill="#e2818c"></path><path d="M0 336L16.7 338C33.3 340 66.7 344 100 352.8C133.3 361.7 166.7 375.3 200 381C233.3 386.7 266.7 384.3 300 376.7C333.3 369 366.7 356 400 353.3C433.3 350.7 466.7 358.3 500 366C533.3 373.7 566.7 381.3 600 376.8C633.3 372.3 666.7 355.7 700 354.8C733.3 354 766.7 369 800 377C833.3 385 866.7 386 883.3 386.5L900 387L900 451L883.3 451C866.7 451 833.3 451 800 451C766.7 451 733.3 451 700 451C666.7 451 633.3 451 600 451C566.7 451 533.3 451 500 451C466.7 451 433.3 451 400 451C366.7 451 333.3 451 300 451C266.7 451 233.3 451 200 451C166.7 451 133.3 451 100 451C66.7 451 33.3 451 16.7 451L0 451Z" fill="#f2a384"></path><path d="M0 412L16.7 408C33.3 404 66.7 396 100 395.2C133.3 394.3 166.7 400.7 200 402C233.3 403.3 266.7 399.7 300 400.3C333.3 401 366.7 406 400 408.3C433.3 410.7 466.7 410.3 500 406.3C533.3 402.3 566.7 394.7 600 393C633.3 391.3 666.7 395.7 700 397.3C733.3 399 766.7 398 800 396.7C833.3 395.3 866.7 393.7 883.3 392.8L900 392L900 451L883.3 451C866.7 451 833.3 451 800 451C766.7 451 733.3 451 700 451C666.7 451 633.3 451 600 451C566.7 451 533.3 451 500 451C466.7 451 433.3 451 400 451C366.7 451 333.3 451 300 451C266.7 451 233.3 451 200 451C166.7 451 133.3 451 100 451C66.7 451 33.3 451 16.7 451L0 451Z" fill="#f2ca8d"></path></svg>