<svg id="visual" viewBox="0 0 900 450" width="900" height="450" xmlns="http://www.w3.org/2000/svg" xmlns:xlink="http://www.w3.org/1999/xlink" version="1.1"><rect x="0" y="0" width="900" height="450" fill="#0189ff"></rect><path d="M0 263L11.5 259.2C23 255.3 46 247.7 69 251.3C92 255 115 270 138.2 281.8C161.3 293.7 184.7 302.3 207.8 303.7C231 305 254 299 277 301C300 303 323 313 346 313.5C369 314 392 305 415.2 294.2C438.3 283.3 461.7 270.7 484.8 260.5C508 250.3 531 242.7 554 245.8C577 249 600 263 623 274.3C646 285.7 669 294.3 692.2 290C715.3 285.7 738.7 268.3 761.8 267.2C785 266 808 281 831 291.2C854 301.3 877 306.7 888.5 309.3L900 312L900 451L888.5 451C877 451 854 451 831 451C808 451 785 451 761.8 451C738.7 451 715.3 451 692.2 451C669 451 646 451 623 451C600 451 577 451 554 451C531 451 508 451 484.8 451C461.7 451 438.3 451 415.2 451C392 451 369 451 346 451C323 451 300 451 277 451C254 451 231 451 207.8 451C184.7 451 161.3 451 138.2 451C115 451 92 451 69 451C46 451 23 451 11.5 451L0 451Z" fill="#0072d5"></path><path d="M0 285L11.5 289.3C23 293.7 46 302.3 69 298.8C92 295.3 115 279.7 138.2 272.8C161.3 266 184.7 268 207.8 272.3C231 276.7 254 283.3 277 295.3C300 307.3 323 324.7 346 321C369 317.3 392 292.7 415.2 289.3C438.3 286 461.7 304 484.8 315C508 326 531 330 554 328.3C577 326.7 600 319.3 623 314.7C646 310 669 308 692.2 300C715.3 292 738.7 278 761.8 283.3C785 288.7 808 313.3 831 325.3C854 337.3 877 336.7 888.5 336.3L900 336L900 451L888.5 451C877 451 854 451 831 451C808 451 785 451 761.8 451C738.7 451 715.3 451 692.2 451C669 451 646 451 623 451C600 451 577 451 554 451C531 451 508 451 484.8 451C461.7 451 438.3 451 415.2 451C392 451 369 451 346 451C323 451 300 451 277 451C254 451 231 451 207.8 451C184.7 451 161.3 451 138.2 451C115 451 92 451 69 451C46 451 23 451 11.5 451L0 451Z" fill="#5b88da"></path><path d="M0 303L11.5 302.7C23 302.3 46 301.7 69 304C92 306.3 115 311.7 138.2 311.8C161.3 312 184.7 307 207.8 309.3C231 311.7 254 321.3 277 321.8C300 322.3 323 313.7 346 309.8C369 306 392 307 415.2 306.8C438.3 306.7 461.7 305.3 484.8 314.7C508 324 531 344 554 347.8C577 351.7 600 339.3 623 338.8C646 338.3 669 349.7 692.2 354.3C715.3 359 738.7 357 761.8 346.3C785 335.7 808 316.3 831 309.8C854 303.3 877 309.7 888.5 312.8L900 316L900 451L888.5 451C877 451 854 451 831 451C808 451 785 451 761.8 451C738.7 451 715.3 451 692.2 451C669 451 646 451 623 451C600 451 577 451 554 451C531 451 508 451 484.8 451C461.7 451 438.3 451 415.2 451C392 451 369 451 346 451C323 451 300 451 277 451C254 451 231 451 207.8 451C184.7 451 161.3 451 138.2 451C115 451 92 451 69 451C46 451 23 451 11.5 451L0 451Z" fill="#859ede"></path><path d="M0 369L11.5 370.7C23 372.3 46 375.7 69 369.8C92 364 115 349 138.2 341.8C161.3 334.7 184.7 335.3 207.8 338.2C231 341 254 346 277 351.7C300 357.3 323 363.7 346 360.7C369 357.7 392 345.3 415.2 340.8C438.3 336.3 461.7 339.7 484.8 340.3C508 341 531 339 554 337.7C577 336.3 600 335.7 623 339.3C646 343 669 351 692.2 353C715.3 355 738.7 351 761.8 355.5C785 360 808 373 831 372.5C854 372 877 358 888.5 351L900 344L900 451L888.5 451C877 451 854 451 831 451C808 451 785 451 761.8 451C738.7 451 715.3 451 692.2 451C669 451 646 451 623 451C600 451 577 451 554 451C531 451 508 451 484.8 451C461.7 451 438.3 451 415.2 451C392 451 369 451 346 451C323 451 300 451 277 451C254 451 231 451 207.8 451C184.7 451 161.3 451 138.2 451C115 451 92 451 69 451C46 451 23 451 11.5 451L0 451Z" fill="#a8b6e2"></path><path d="M0 374L11.5 378.7C23 383.3 46 392.7 69 392.3C92 392 115 382 138.2 382.7C161.3 383.3 184.7 394.7 207.8 395.7C231 396.7 254 387.3 277 379.5C300 371.7 323 365.3 346 366.2C369 367 392 375 415.2 382.3C438.3 389.7 461.7 396.3 484.8 398.5C508 400.7 531 398.3 554 398.5C577 398.7 600 401.3 623 398C646 394.7 669 385.3 692.2 382.3C715.3 379.3 738.7 382.7 761.8 384.7C785 386.7 808 387.3 831 388.7C854 390 877 392 888.5 393L900 394L900 451L888.5 451C877 451 854 451 831 451C808 451 785 451 761.8 451C738.7 451 715.3 451 692.2 451C669 451 646 451 623 451C600 451 577 451 554 451C531 451 508 451 484.8 451C461.7 451 438.3 451 415.2 451C392 451 369 451 346 451C323 451 300 451 277 451C254 451 231 451 207.8 451C184.7 451 161.3 451 138.2 451C115 451 92 451 69 451C46 451 23 451 11.5 451L0 451Z" fill="#c9cfe5"></path><path d="M0 408L11.5 408.8C23 409.7 46 411.3 69 413.3C92 415.3 115 417.7 138.2 417.3C161.3 417 184.7 414 207.8 409.3C231 404.7 254 398.3 277 396.3C300 394.3 323 396.7 346 397C369 397.3 392 395.7 415.2 400.2C438.3 404.7 461.7 415.3 484.8 419.2C508 423 531 420 554 417.7C577 415.3 600 413.7 623 410C646 406.3 669 400.7 692.2 403.3C715.3 406 738.7 417 761.8 417.3C785 417.7 808 407.3 831 401.3C854 395.3 877 393.7 888.5 392.8L900 392L900 451L888.5 451C877 451 854 451 831 451C808 451 785 451 761.8 451C738.7 451 715.3 451 692.2 451C669 451 646 451 623 451C600 451 577 451 554 451C531 451 508 451 484.8 451C461.7 451 438.3 451 415.2 451C392 451 369 451 346 451C323 451 300 451 277 451C254 451 231 451 207.8 451C184.7 451 161.3 451 138.2 451C115 451 92 451 69 451C46 451 23 451 11.5 451L0 451Z" fill="#e8e8e8"></path></svg>