<svg id="visual" viewBox="0 0 900 450" width="900" height="450" xmlns="http://www.w3.org/2000/svg" xmlns:xlink="http://www.w3.org/1999/xlink" version="1.1"> <rect x="0" y="0" width="900" height="450" fill="#0189ff"></rect> <path d="M0 280L11.5 278.3C23 276.7 46 273.3 69 275.3C92 277.3 115 284.7 138.2 291.7C161.3 298.7 184.7 305.3 207.8 301C231 296.7 254 281.3 277 282.3C300 283.3 323 300.7 346 302.7C369 304.7 392 291.3 415.2 278.5C438.3 265.7 461.7 253.3 484.8 252.8C508 252.3 531 263.7 554 263.2C577 262.7 600 250.3 623 247.3C646 244.3 669 250.7 692.2 264C715.3 277.3 738.7 297.7 761.8 304.8C785 312 808 306 831 305.2C854 304.3 877 308.7 888.5 310.8L900 313L900 451L888.5 451C877 451 854 451 831 451C808 451 785 451 761.8 451C738.7 451 715.3 451 692.2 451C669 451 646 451 623 451C600 451 577 451 554 451C531 451 508 451 484.8 451C461.7 451 438.3 451 415.2 451C392 451 369 451 346 451C323 451 300 451 277 451C254 451 231 451 207.8 451C184.7 451 161.3 451 138.2 451C115 451 92 451 69 451C46 451 23 451 11.5 451L0 451Z" fill="#006cca"></path> <path d="M0 303L11.5 305.3C23 307.7 46 312.3 69 310.5C92 308.7 115 300.3 138.2 290.8C161.3 281.3 184.7 270.7 207.8 278.5C231 286.3 254 312.7 277 318.5C300 324.3 323 309.7 346 297.7C369 285.7 392 276.3 415.2 281C438.3 285.7 461.7 304.3 484.8 306.2C508 308 531 293 554 289C577 285 600 292 623 295.3C646 298.7 669 298.3 692.2 292.5C715.3 286.7 738.7 275.3 761.8 274C785 272.7 808 281.3 831 287.3C854 293.3 877 296.7 888.5 298.3L900 300L900 451L888.5 451C877 451 854 451 831 451C808 451 785 451 761.8 451C738.7 451 715.3 451 692.2 451C669 451 646 451 623 451C600 451 577 451 554 451C531 451 508 451 484.8 451C461.7 451 438.3 451 415.2 451C392 451 369 451 346 451C323 451 300 451 277 451C254 451 231 451 207.8 451C184.7 451 161.3 451 138.2 451C115 451 92 451 69 451C46 451 23 451 11.5 451L0 451Z" fill="#255ca6"></path> <path d="M0 337L11.5 336.5C23 336 46 335 69 329.3C92 323.7 115 313.3 138.2 317C161.3 320.7 184.7 338.3 207.8 342.5C231 346.7 254 337.3 277 329C300 320.7 323 313.3 346 317.5C369 321.7 392 337.3 415.2 339C438.3 340.7 461.7 328.3 484.8 329.5C508 330.7 531 345.3 554 344.8C577 344.3 600 328.7 623 322.7C646 316.7 669 320.3 692.2 317.8C715.3 315.3 738.7 306.7 761.8 304C785 301.3 808 304.7 831 309.5C854 314.3 877 320.7 888.5 323.8L900 327L900 451L888.5 451C877 451 854 451 831 451C808 451 785 451 761.8 451C738.7 451 715.3 451 692.2 451C669 451 646 451 623 451C600 451 577 451 554 451C531 451 508 451 484.8 451C461.7 451 438.3 451 415.2 451C392 451 369 451 346 451C323 451 300 451 277 451C254 451 231 451 207.8 451C184.7 451 161.3 451 138.2 451C115 451 92 451 69 451C46 451 23 451 11.5 451L0 451Z" fill="#2e4d83"></path> <path d="M0 335L11.5 340.5C23 346 46 357 69 356.8C92 356.7 115 345.3 138.2 340.5C161.3 335.7 184.7 337.3 207.8 337.7C231 338 254 337 277 338.5C300 340 323 344 346 343.7C369 343.3 392 338.7 415.2 340.3C438.3 342 461.7 350 484.8 349.8C508 349.7 531 341.3 554 340.8C577 340.3 600 347.7 623 351.8C646 356 669 357 692.2 358.5C715.3 360 738.7 362 761.8 357.7C785 353.3 808 342.7 831 338.8C854 335 877 338 888.5 339.5L900 341L900 451L888.5 451C877 451 854 451 831 451C808 451 785 451 761.8 451C738.7 451 715.3 451 692.2 451C669 451 646 451 623 451C600 451 577 451 554 451C531 451 508 451 484.8 451C461.7 451 438.3 451 415.2 451C392 451 369 451 346 451C323 451 300 451 277 451C254 451 231 451 207.8 451C184.7 451 161.3 451 138.2 451C115 451 92 451 69 451C46 451 23 451 11.5 451L0 451Z" fill="#2f3f61"></path> <path d="M0 371L11.5 377.2C23 383.3 46 395.7 69 394.5C92 393.3 115 378.7 138.2 378.7C161.3 378.7 184.7 393.3 207.8 399C231 404.7 254 401.3 277 397.7C300 394 323 390 346 391.5C369 393 392 400 415.2 402.8C438.3 405.7 461.7 404.3 484.8 398.3C508 392.3 531 381.7 554 376.7C577 371.7 600 372.3 623 370.5C646 368.7 669 364.3 692.2 368.5C715.3 372.7 738.7 385.3 761.8 388.5C785 391.7 808 385.3 831 385.7C854 386 877 393 888.5 396.5L900 400L900 451L888.5 451C877 451 854 451 831 451C808 451 785 451 761.8 451C738.7 451 715.3 451 692.2 451C669 451 646 451 623 451C600 451 577 451 554 451C531 451 508 451 484.8 451C461.7 451 438.3 451 415.2 451C392 451 369 451 346 451C323 451 300 451 277 451C254 451 231 451 207.8 451C184.7 451 161.3 451 138.2 451C115 451 92 451 69 451C46 451 23 451 11.5 451L0 451Z" fill="#2b3142"></path> <path d="M0 418L11.5 419.8C23 421.7 46 425.3 69 424.8C92 424.3 115 419.7 138.2 416.7C161.3 413.7 184.7 412.3 207.8 410C231 407.7 254 404.3 277 403.7C300 403 323 405 346 409.7C369 414.3 392 421.7 415.2 419.7C438.3 417.7 461.7 406.3 484.8 401C508 395.7 531 396.3 554 397.7C577 399 600 401 623 406C646 411 669 419 692.2 419C715.3 419 738.7 411 761.8 407.7C785 404.3 808 405.7 831 404.7C854 403.7 877 400.3 888.5 398.7L900 397L900 451L888.5 451C877 451 854 451 831 451C808 451 785 451 761.8 451C738.7 451 715.3 451 692.2 451C669 451 646 451 623 451C600 451 577 451 554 451C531 451 508 451 484.8 451C461.7 451 438.3 451 415.2 451C392 451 369 451 346 451C323 451 300 451 277 451C254 451 231 451 207.8 451C184.7 451 161.3 451 138.2 451C115 451 92 451 69 451C46 451 23 451 11.5 451L0 451Z" fill="#242424"></path> </svg>